# xmcd CD database file
#
# Track frame offsets:
#	150
#	13035
#	27380
#	41245
#	54732
#	66820
#	81650
#	94397
#	108247
#	121677
#	135367
#	149475
#	163047
#	176135
#	189177
#	202855
#	216562
#	230755
#	243667
#	256857
#	271175
#	283025
#	297065
#	310262
#
# Disc length: 4309 seconds
#
# Revision: 1
# Processed by: cddbd v1.5.2PL0 Copyright (c) Steve Scherf et al.
# Submitted via: CDex 1.51
#
DISCID=6c10d318
DTITLE=Benny Goodman - The Complete 1947-1949 Small Group Studio Sessions
DYEAR=2001
DGENRE=Jazz
TTITLE0=Sweet Georgia Brown
TTITLE1=I'll always be in love with you
TTITLE2=Sweet Lorraine
TTITLE3=St. Louis blues
TTITLE4=I know that you know
TTITLE5=I can't get started
TTITLE6=The lonesome road
TTITLE7=Fine and dandy
TTITLE8=Mean to me
TTITLE9=Puttin' on the Ritz
TTITLE10=I never knew
TTITLE11=Lazy river
TTITLE12=The Bannister slide
TTITLE13=Benny's boogie
TTITLE14=How high the moon
TTITLE15=Music maestro please
TTITLE16=Makin' whoopee
TTITLE17=Cherokee (indian love song)
TTITLE18=The maids of Cadiz
TTITLE19=Love is just around
TTITLE20=Iknow that you know
TTITLE21=Hi'ya Sophia
TTITLE22=Baby, have you got a little love
TTITLE23=Nagasaki
EXTD=YEAR: 2001
EXTT0=
EXTT1=
EXTT2=
EXTT3=
EXTT4=
EXTT5=
EXTT6=
EXTT7=
EXTT8=
EXTT9=
EXTT10=
EXTT11=
EXTT12=
EXTT13=
EXTT14=
EXTT15=
EXTT16=
EXTT17=
EXTT18=
EXTT19=
EXTT20=
EXTT21=
EXTT22=
EXTT23=
PLAYORDER=
